<svg width="32" height="32" viewBox="0 0 32 32" fill="none" xmlns="http://www.w3.org/2000/svg">
  <path d="M4 4H10L16 14L22 4H28V28H22V14L16 24L10 14V28H4V4Z" fill="#EF4444" stroke="#0F172A" stroke-width="2" stroke-linejoin="round"/>
  <rect x="22" y="22" width="6" height="6" fill="#EF4444"/>
  <path d="M22 22H28V28H4V22H10" stroke="#EF4444" stroke-width="2"/>
  
  <!-- Redesigned Industrial ML -->
  <rect width="32" height="32" rx="4" fill="#0F172A"/>
  <path d="M7 8V24H13V16L16 20L19 16V24H25V8H20L16 13L12 8H7Z" fill="#EF4444"/>
  <path d="M21 24V20H25V24H21Z" fill="#EF4444"/>
  
  <!-- Let's try a simpler, cleaner geometric shape -->
  <mask id="mask0_1_2" style="mask-type:alpha" maskUnits="userSpaceOnUse" x="0" y="0" width="32" height="32">
    <rect width="32" height="32" rx="4" fill="#D9D9D9"/>
  </mask>
  <g mask="url(#mask0_1_2)">
    <rect width="32" height="32" fill="#0F172A"/>
    <!-- M Shape -->
    <path d="M6 8H11L16 16L21 8H26V24H21V16L16 24L11 16V24H6V8Z" fill="white"/>
    <!-- L Accent (Bottom right corner style or overlay) -->
    <path d="M22 20H26V24H10V20" stroke="#EF4444" stroke-width="3" stroke-linecap="square"/>
  </g>
  
  <!-- Final Version: Clean Industrial Steps -->
  <rect width="32" height="32" rx="4" fill="#0F172A"/>
  <!-- M -->
  <path d="M6 8H10V18L16 24L22 18V8H26V24H21L16 28L11 24H6V8Z" fill="#E2E8F0"/>
  <!-- L Overlay in Red -->
  <path d="M18 16H26V24H18V16Z" fill="#EF4444"/> <!-- Just a block accent -->
  
  <!-- Let's actually draw specifically M L -->
  <rect width="32" height="32" rx="6" fill="#0F172A"/>
  <path d="M8 8V24H12V16L16 20L20 16V24H24V8H19L16 12L13 8H8Z" fill="white"/>
  <path d="M20 20H24V24H8" stroke="#EF4444" stroke-width="0"/> <!-- decorative -->
  
  <!-- Re-re-design: Blocky M, with L integrated -->
  <rect width="32" height="32" fill="#0F172A" rx="4"/>
  <path fill-rule="evenodd" clip-rule="evenodd" d="M6 6H12L16 12L20 6H26V26H20V20H26V26H6V6ZM12 18V26H16L12 18Z" fill="#1E293B"/> <!-- shadow/depth -->
  
  <!-- Use a path that draws MP clearly -->
  <rect x="0" y="0" width="32" height="32" rx="8" fill="#0F172A"/>
  <path d="M7 8H11.5L16 14.5L20.5 8H25V24H21V16L17.5 21H14.5L11 16V24H7V8Z" fill="#F8FAFC"/>
  <!-- The L shape: The bottom right part of the M -->
  <path d="M18 20H25V24H18V20Z" fill="#EF4444"/>
</svg>